<svg id="visual" viewBox="0 0 900 600" width="900" height="600" xmlns="http://www.w3.org/2000/svg" xmlns:xlink="http://www.w3.org/1999/xlink" version="1.1"><rect x="0" y="0" width="900" height="600" fill="#973c4c"></rect><path d="M0 212L21.5 212.7C43 213.3 86 214.7 128.8 214.8C171.7 215 214.3 214 257.2 196.3C300 178.7 343 144.3 385.8 131.8C428.7 119.3 471.3 128.7 514.2 139.8C557 151 600 164 642.8 167.7C685.7 171.3 728.3 165.7 771.2 151.2C814 136.7 857 113.3 878.5 101.7L900 90L900 0L878.5 0C857 0 814 0 771.2 0C728.3 0 685.7 0 642.8 0C600 0 557 0 514.2 0C471.3 0 428.7 0 385.8 0C343 0 300 0 257.2 0C214.3 0 171.7 0 128.8 0C86 0 43 0 21.5 0L0 0Z" fill="#9c4b5a" stroke-linecap="round" stroke-linejoin="miter"></path></svg>